<svg xmlns="http://www.w3.org/2000/svg" height="800" width="1200" viewBox="-12.427485 -5.441025 107.70487 32.64615"><defs><clipPath id="a" clipPathUnits="userSpaceOnUse"><path d="M0 0h1190.551v841.89H0z"/></clipPath></defs><g transform="matrix(1.25 0 0 -1.25 -50.6932 53.0331)" clip-path="url(#a)"><path d="M41.7346 28.0049l-.306-1.96a.4872.4872 0 01-.011-.087c0-.023.004-.043.011-.057a.0804.0804 0 01.027-.033c.012-.007.034-.016.067-.026.034-.009.053-.015.06-.016.021-.003.031-.015.031-.034 0-.009-.003-.018-.008-.03l-.041-.081c-.018-.028-.037-.041-.058-.041h-.794c-.027 0-.041.01-.041.03 0 .008.004.023.012.048l.029.056c.011.024.03.043.06.055.054.014.095.036.125.062.03.026.05.078.061.154l.309 1.96h-.625c-.059 0-.088.014-.088.041 0 .015.007.031.02.049l.119.204c.021.042.036.063.045.063.001 0 .006-.002.015-.007l.041-.034c.066-.055.168-.081.306-.081h1.343c.03 0 .045-.012.045-.034a.055.055 0 00-.016-.04l-.073-.117c-.027-.028-.066-.044-.116-.044zm1.5476-.168l-.105-.645h.844l.101.645c.005.033.008.061.008.085 0 .046-.01.076-.031.087-.02.012-.065.028-.135.046-.022.003-.032.015-.032.033 0 .009.003.02.01.031l.044.081c.013.027.032.041.057.041h.791c.028 0 .042-.01.042-.03 0-.008-.004-.024-.012-.049l-.026-.055a.1248.1248 0 00-.063-.056c-.052-.014-.094-.034-.123-.061-.03-.027-.051-.077-.064-.153l-.283-1.792a.3753.3753 0 01-.01-.084c0-.046.008-.073.027-.084.018-.012.065-.028.14-.049.021-.004.032-.016.032-.035 0-.008-.004-.019-.01-.029l-.043-.082c-.014-.027-.032-.041-.058-.041h-.792c-.027 0-.04.009-.04.03 0 .009.004.024.012.049l.026.054c.011.026.032.044.062.057.053.015.093.035.123.06.029.029.05.078.063.154l.143.9h-.84l-.142-.9a.4546.4546 0 01-.009-.084c0-.025.003-.045.01-.058a.0693.0693 0 01.029-.034c.013-.008.035-.017.069-.027.034-.009.054-.013.059-.014.021-.004.031-.016.031-.035 0-.008-.003-.019-.01-.029l-.043-.082c-.014-.027-.032-.041-.058-.041h-.792c-.027 0-.041.009-.041.03 0 .009.005.024.012.049l.026.054c.013.026.034.044.063.057.053.015.094.035.123.06.03.029.051.078.064.154l.28 1.792c.007.041.01.068.01.084 0 .047-.01.076-.031.088-.02.012-.064.028-.132.046-.023.003-.032.015-.032.033 0 .009.002.019.008.031l.042.081c.016.027.035.041.056.041h.797c.024 0 .037-.009.037-.03 0-.017-.005-.031-.012-.049l-.025-.054a.1229.1229 0 00-.062-.057c-.053-.014-.095-.034-.124-.06-.03-.028-.05-.078-.061-.154m1.9301.4044h1.3c.046 0 .07-.028.07-.083 0-.01-.003-.026-.006-.051l-.041-.269a.1322.1322 0 00-.02-.033l-.066-.064a.054.054 0 00-.016-.008c-.012 0-.029.032-.05.092a.642.642 0 01-.071.153c-.027.04-.067.06-.118.06h-.381l-.145-.875h.654c.024 0 .035-.009.035-.028 0-.007-.003-.018-.009-.027l-.056-.135c-.018-.033-.05-.048-.099-.048h-.563l-.11-.704c-.013-.085-.02-.151-.02-.196 0-.07.014-.117.041-.144.028-.026.074-.039.14-.039h.245c.058 0 .109.017.152.047.044.029.083.071.119.124.035.051.062.091.079.12.018.031.033.044.044.044l.082-.037c.008-.003.012-.014.012-.035l-.053-.335c-.014-.086-.064-.129-.151-.129h-1.112c-.039 0-.066.007-.082.022-.017.014-.025.049-.025.104 0 .032.005.083.015.153l.3 1.892a.589.589 0 01.006.067c0 .083-.049.137-.148.163-.036.009-.053.02-.053.037 0 .011.002.019.006.024l.044.093c.016.03.033.045.051.045m4.2323-.5333l-.072-.065c-.024 0-.053.06-.089.18-.051.177-.151.264-.302.264-.077 0-.145-.029-.202-.089a.299.299 0 01-.086-.215c0-.087.016-.162.045-.23.03-.065.086-.154.167-.267.082-.115.14-.198.173-.249.111-.171.187-.308.228-.412a.8773.8773 0 00.062-.331c0-.08-.016-.16-.046-.242a.6722.6722 0 00-.147-.225c-.067-.069-.158-.124-.269-.167-.111-.043-.243-.063-.397-.063-.191 0-.341.024-.451.075-.063.025-.105.047-.125.063-.019.017-.029.048-.029.093l.045.416c.002.014.003.03.004.045.002.016.006.03.01.041.005.013.011.021.019.024l.086.034c.008 0 .016-.01.024-.033a.872.872 0 00.028-.099c.011-.044.02-.08.028-.109a.6788.6788 0 01.037-.092c.059-.144.159-.216.303-.216.092 0 .167.024.222.071.055.046.092.103.114.166.02.065.031.125.031.179 0 .109-.029.218-.087.328-.059.108-.139.23-.239.366-.126.171-.215.306-.266.403-.052.096-.078.201-.078.317 0 .118.031.223.091.317.06.093.152.166.273.22.123.052.269.08.44.08.17 0 .312-.025.427-.072.069-.031.104-.079.104-.142l-.054-.322a.247.247 0 00-.022-.042m.4196.4071l.041.082c.014.029.034.044.06.044h.725c.023 0 .035-.01.035-.03 0-.012-.003-.025-.009-.041l-.032-.067a.0658.0658 0 00-.017-.023.1733.1733 0 00-.032-.024.3434.3434 0 01-.033-.023c-.031-.017-.053-.032-.065-.048-.011-.013-.017-.042-.017-.082 0-.008.002-.032.007-.072l.163-.926.58.968c.02.034.029.062.029.086 0 .027-.015.055-.047.078-.01.007-.021.015-.033.023a.1644.1644 0 00-.026.023.028.028 0 00-.008.02c0 .005.002.013.007.022l.048.074c.016.024.031.038.043.038h.441c.037 0 .055-.007.055-.023a.041.041 0 00-.007-.025l-.037-.097c-.007-.015-.027-.03-.059-.045-.033-.014-.052-.023-.056-.026-.053-.031-.116-.106-.188-.226l-.593-.992c-.04-.067-.069-.123-.084-.169a.9303.9303 0 01-.036-.17l-.066-.419a.3633.3633 0 01-.007-.081c0-.027.003-.046.01-.061a.0764.0764 0 01.029-.035c.013-.008.036-.016.071-.026.035-.01.052-.015.055-.015.021-.004.031-.015.031-.034 0-.01-.003-.019-.01-.029l-.041-.083c-.015-.026-.035-.041-.06-.041h-.795c-.025 0-.038.011-.038.031 0 .008.005.025.013.048l.025.056c.012.024.032.041.061.055.055.015.098.034.127.061.03.028.051.078.061.154l.099.636-.237 1.129c-.013.076-.032.132-.056.168a.1777.1777 0 01-.096.074c-.025.007-.038.021-.038.04 0 .005.002.013.007.023m4.5029-.2906l-.284-1.78a.4232.4232 0 01-.007-.08c0-.047.01-.078.029-.088.018-.013.063-.029.136-.049.02-.005.031-.015.031-.034 0-.01-.003-.019-.009-.029l-.041-.083c-.017-.027-.037-.041-.06-.041h-.795c-.026 0-.039.011-.039.03 0 .009.005.025.013.048l.026.056c.012.024.031.043.06.056.054.015.097.034.127.062.03.027.05.078.061.153l.234 1.472-.006.008-.982-1.802c-.031-.055-.053-.083-.066-.083h-.051c-.015 0-.029.041-.044.12l-.388 1.733h-.007l-.224-1.449a.4546.4546 0 01-.009-.084c0-.025.003-.043.01-.059a.0776.0776 0 01.029-.033c.011-.008.033-.016.066-.023.032-.009.053-.016.062-.018.019-.003.028-.014.028-.03 0-.013-.003-.024-.01-.033l-.041-.083c-.016-.027-.035-.041-.056-.041h-.537c-.025 0-.038.011-.038.03 0 .013.004.029.013.048l.025.056c.011.025.032.044.06.055.053.016.095.036.125.063.03.026.051.077.061.152l.287 1.814a.3282.3282 0 01-.093.126c-.042.036-.083.062-.124.077-.02.011-.031.023-.031.038 0 .006.001.016.005.03l.041.077c.012.023.031.035.057.035h.455c.082 0 .132-.046.151-.139l.38-1.73.957 1.746c.044.081.098.123.16.123h.506c.027 0 .041-.011.041-.03 0-.016-.004-.033-.013-.048l-.025-.061a.126.126 0 00-.069-.059c-.057-.016-.099-.036-.126-.062-.028-.025-.048-.077-.061-.157m1.5792-1.6596c-.03-.099-.079-.186-.148-.256-.069-.07-.159-.106-.267-.106-.082 0-.146.015-.191.048-.046.033-.068.094-.068.182 0 .032.003.066.01.102l.126.807h.203c.084 0 .154-.025.211-.073.058-.048.1-.109.128-.184a.6691.6691 0 00.041-.231c0-.092-.015-.189-.045-.289m-.354 1.894h.192c.099 0 .175-.031.227-.093.051-.061.076-.144.076-.248 0-.118-.021-.221-.062-.309-.042-.088-.097-.156-.166-.2-.069-.047-.143-.07-.221-.07h-.199zm.7-1.137c-.068.079-.164.127-.286.146v.006c.138.035.259.109.365.223.107.114.16.256.16.424 0 .168-.049.296-.148.385-.099.09-.243.135-.431.135h-.962c-.02 0-.036-.015-.051-.044l-.044-.094c-.005-.005-.006-.012-.006-.021 0-.017.017-.029.052-.037.1-.027.149-.081.149-.164 0-.011-.002-.033-.007-.066l-.305-1.934a.4165.4165 0 01-.007-.078c0-.064.017-.103.051-.118.125-.059.323-.088.597-.088.195 0 .361.027.498.08.137.054.245.124.324.21.08.086.137.178.171.275.034.098.051.194.051.289 0 .061-.012.134-.034.222-.023.087-.069.17-.137.249m2.1503-.2388c-.056-.235-.144-.439-.265-.608-.12-.172-.272-.257-.454-.257-.158 0-.279.07-.36.212-.081.138-.121.329-.121.57 0 .239.03.472.092.697.062.227.152.41.27.553.117.142.254.213.411.213.168 0 .295-.069.381-.204.086-.137.129-.314.129-.532 0-.194-.027-.409-.083-.644m.44 1.113c-.079.159-.186.282-.321.364a.8364.8364 0 01-.446.125c-.181 0-.354-.038-.519-.117-.164-.077-.31-.187-.434-.33-.126-.143-.224-.312-.295-.511-.071-.196-.106-.41-.106-.639 0-.282.051-.505.155-.667.102-.165.226-.276.37-.334.144-.061.289-.091.435-.091.109 0 .233.029.376.085.143.057.283.15.422.278.139.128.255.298.345.51.092.213.138.466.138.761 0 .217-.04.406-.12.566m.4569-1.7493l.281 1.789c.007.041.011.07.011.086 0 .047-.012.076-.032.088-.02.011-.064.027-.133.045-.021.003-.032.015-.032.035 0 .008.003.017.009.029l.041.081c.017.027.036.042.057.042h.795c.027 0 .041-.011.041-.031 0-.008-.005-.025-.012-.048l-.026-.056c-.012-.024-.033-.043-.063-.055-.054-.015-.096-.035-.125-.062-.03-.027-.05-.077-.061-.154l-.255-1.614c-.013-.079-.02-.145-.02-.197 0-.069.014-.117.041-.142.027-.027.073-.04.137-.04h.216c.059 0 .11.016.153.047.044.031.075.06.094.086.019.027.045.067.079.121.034.054.056.081.066.081l.085-.038c.009-.003.013-.014.013-.033l-.055-.336c-.013-.086-.064-.13-.153-.13h-1.401c-.026 0-.038.011-.038.03 0 .016.004.032.012.048l.026.057c.013.025.033.043.06.057.054.014.096.033.126.061.029.027.051.077.063.153m4.2497.6363c-.056-.235-.144-.439-.265-.608-.12-.172-.272-.257-.455-.257-.158 0-.277.07-.359.212-.081.138-.121.329-.121.57 0 .239.031.472.092.697.062.227.152.41.27.553.117.142.254.213.411.213.168 0 .295-.069.381-.204.086-.137.129-.314.129-.532 0-.194-.028-.409-.083-.644m.44 1.113c-.079.159-.185.282-.321.364a.8339.8339 0 01-.446.125c-.181 0-.354-.038-.519-.117-.165-.077-.31-.187-.434-.33-.126-.143-.224-.312-.295-.511-.071-.196-.106-.41-.106-.639 0-.282.051-.505.154-.667.103-.165.227-.276.37-.334.145-.061.29-.091.436-.091.109 0 .233.029.376.085.143.057.283.15.422.278.14.128.254.298.346.51.09.213.136.466.136.761 0 .217-.039.406-.119.566m.6421.4452h1.303c.046 0 .069-.028.069-.083 0-.01-.002-.026-.006-.051l-.041-.269a.079.079 0 00-.02-.033l-.066-.064a.043.043 0 00-.015-.008c-.013 0-.03.032-.051.092a.642.642 0 01-.071.153c-.027.04-.066.06-.119.06h-.381l-.166-1.013h.655c.026 0 .039-.008.039-.027 0-.009-.004-.017-.01-.028l-.057-.135c-.017-.031-.05-.048-.097-.048h-.565l-.116-.742a.4802.4802 0 01-.01-.086c0-.024.003-.043.01-.057a.0649.0649 0 01.027-.033.1969.1969 0 01.048-.021c.02-.005.046-.012.079-.021.021-.004.031-.014.031-.034 0-.009-.003-.02-.009-.03l-.041-.081c-.016-.028-.035-.041-.058-.041h-.794c-.027 0-.04.009-.04.03 0 .007.004.023.013.048l.024.054c.014.025.034.045.063.057.055.014.097.034.125.061.031.027.051.079.062.154l.279 1.767c.005.031.007.053.007.067 0 .083-.05.137-.148.163-.037.009-.056.021-.056.037 0 .005.001.013.005.024l.051.093c.013.03.028.045.047.045m15.4325-2.4231c-.158 0-.278.07-.359.211-.081.14-.121.33-.121.57 0 .24.03.474.092.698.062.227.152.41.27.553.117.142.254.213.411.213.168 0 .295-.068.38-.204.087-.136.129-.314.129-.533 0-.193-.026-.408-.082-.643-.056-.237-.144-.439-.264-.609-.121-.17-.272-.256-.456-.256m1.294-.554c-.152.053-.314.119-.486.199-.174.081-.31.16-.413.237.124.058.238.135.345.231.107.097.2.211.28.344.081.131.145.278.191.44.045.163.068.335.068.515 0 .216-.039.406-.119.567-.079.159-.186.281-.32.363a.8432.8432 0 01-.447.126c-.181 0-.354-.041-.519-.118-.165-.077-.31-.186-.435-.33-.125-.143-.223-.312-.294-.511-.071-.196-.106-.41-.106-.64 0-.264.046-.477.141-.64.093-.163.216-.279.371-.348.154-.068.324-.102.511-.102l.671-.478c.099-.069.168-.104.206-.104.027 0 .065.014.117.038l.251.114zm2.2166 2.5727l-.183-1.156c-.114-.722-.43-1.084-.949-1.084-.16 0-.295.031-.405.094-.111.063-.194.155-.251.276-.055.122-.083.266-.083.435 0 .087.009.185.026.297l.175 1.138c.006.033.01.06.01.084 0 .047-.01.076-.031.088-.02.012-.066.028-.137.046-.018.003-.027.013-.027.03 0 .011.003.022.01.034l.04.081c.017.027.037.041.06.041h.791c.026 0 .038-.01.038-.03 0-.012-.004-.028-.013-.049l-.025-.054c-.01-.025-.03-.044-.059-.057-.055-.014-.097-.034-.127-.06-.029-.027-.049-.078-.06-.154l-.193-1.192c-.014-.095-.021-.173-.021-.234 0-.162.035-.289.104-.378.07-.092.172-.138.305-.138.16 0 .293.07.397.21.104.139.176.337.216.596l.18 1.136c.006.037.01.065.01.084 0 .047-.011.076-.031.088-.02.012-.065.028-.134.046-.021.003-.032.014-.032.03 0 .011.004.022.011.034l.04.081c.016.027.035.041.058.041h.536c.028 0 .041-.01.041-.03 0-.008-.004-.024-.012-.049l-.029-.055c-.01-.024-.03-.043-.06-.056-.054-.014-.096-.034-.126-.061-.029-.027-.05-.077-.06-.153m.7302-1.2026l.48 1.026h.006l.124-1.026zm1.355-.804c-.045.016-.078.028-.098.04-.019.01-.038.031-.052.062-.016.032-.027.078-.036.139-.029.177-.054.33-.075.462-.021.131-.047.301-.08.51-.033.21-.062.4-.087.57-.025.173-.049.345-.072.519 0 .073-.019.108-.053.108h-.53c-.039 0-.064-.013-.077-.041l-.021-.051a.0583.0583 0 01-.013-.034c0-.011.003-.019.013-.024a.2017.2017 0 01.044-.021.4078.4078 0 00.055-.025.1353.1353 0 00.037-.034c.031-.045.046-.085.046-.119 0-.04-.011-.085-.034-.138l-.779-1.63c-.041-.078-.077-.136-.107-.177a.303.303 0 00-.121-.093.3665.3665 0 00-.044-.021c-.017-.007-.028-.014-.039-.021a.0705.0705 0 01-.021-.026l-.036-.089c-.007-.012-.012-.024-.012-.033 0-.014.022-.023.067-.023h.458c.008 0 .015.004.023.007.007.006.013.011.018.017.007.007.012.015.019.025l.04.071c.005.005.007.013.007.022 0 .013-.015.028-.045.046a.6474.6474 0 00-.063.044c-.013.01-.019.027-.019.052 0 .021.005.041.016.059l.203.413h.757l.045-.354c0-.071-.009-.12-.026-.148-.018-.027-.043-.048-.075-.066-.032-.017-.053-.035-.064-.054l-.032-.059c-.008-.025-.012-.04-.012-.045 0-.019.013-.03.04-.03h.744c.028 0 .051.014.068.041l.048.09c.004.011.007.018.007.022 0 .018-.011.03-.032.037m.5236.2165l.281 1.789c.007.041.01.07.01.086 0 .047-.01.076-.031.088-.02.011-.064.027-.134.045-.021.003-.031.015-.031.035 0 .008.003.017.009.029l.04.081c.018.027.037.042.058.042h.794c.028 0 .041-.011.041-.031 0-.008-.003-.025-.011-.048l-.026-.056a.1212.1212 0 00-.064-.055c-.053-.015-.094-.035-.124-.062-.03-.027-.05-.077-.061-.154l-.256-1.614c-.012-.079-.018-.145-.018-.197 0-.069.014-.117.04-.142.027-.027.073-.04.136-.04h.217c.059 0 .11.016.154.047.043.031.074.06.092.086.02.027.046.067.081.121.033.054.055.081.064.081l.086-.038c.008-.003.012-.014.012-.033l-.053-.336c-.015-.086-.066-.13-.155-.13h-1.4c-.026 0-.038.011-.038.03 0 .016.005.032.012.048l.026.057a.126.126 0 00.061.057c.053.014.095.033.125.061.03.027.051.077.063.153m1.8941-.0019l.28 1.792c.007.037.009.065.009.084 0 .047-.011.076-.03.088-.02.012-.064.028-.134.046-.021.003-.03.015-.03.033 0 .009.003.019.009.031l.04.081c.017.027.036.041.058.041h.794c.027 0 .04-.01.04-.03 0-.008-.003-.024-.011-.049l-.026-.055c-.012-.024-.034-.043-.063-.056-.055-.014-.096-.034-.124-.06-.03-.027-.05-.078-.063-.154l-.282-1.792a.4438.4438 0 01-.01-.084c0-.046.01-.074.028-.085.018-.011.065-.027.139-.048.021-.004.031-.016.031-.035 0-.008-.003-.019-.009-.029l-.045-.082c-.012-.027-.031-.041-.056-.041h-.795c-.025 0-.038.009-.038.03 0 .016.005.031.013.049l.025.054c.014.027.034.046.061.057.053.015.096.035.126.06.029.029.05.078.063.154m2.4302 1.96l-.307-1.96c-.006-.036-.01-.065-.01-.087 0-.023.004-.043.01-.057.007-.013.016-.026.028-.033.012-.007.034-.016.067-.026.033-.009.052-.015.06-.016.02-.003.032-.015.032-.034 0-.009-.004-.018-.01-.03l-.04-.081c-.017-.028-.037-.041-.058-.041h-.794c-.028 0-.041.01-.041.03 0 .008.004.023.012.048l.029.056c.01.024.03.043.059.055.055.014.096.036.126.062.029.026.049.078.061.154l.309 1.96h-.625c-.059 0-.088.014-.088.041 0 .015.006.031.02.049l.119.204c.021.042.036.063.044.063a.05.05 0 00.015-.007l.041-.034c.067-.055.169-.081.306-.081h1.345c.029 0 .043-.012.043-.034 0-.015-.005-.029-.015-.04l-.073-.117c-.027-.028-.066-.044-.116-.044zm.9174.1102l.041.082c.014.029.034.044.059.044h.727c.022 0 .034-.01.034-.03 0-.012-.003-.025-.009-.041l-.032-.067a.0658.0658 0 00-.017-.023.1439.1439 0 00-.032-.024.6311.6311 0 01-.034-.023c-.03-.017-.051-.032-.063-.048-.012-.013-.018-.042-.018-.082 0-.008.002-.032.007-.072l.164-.926.579.968c.02.034.029.062.029.086 0 .027-.015.055-.047.078-.01.007-.021.015-.033.023a.1644.1644 0 00-.026.023.0272.0272 0 00-.007.02c0 .005.002.013.006.022l.047.074c.018.024.033.038.045.038h.44c.037 0 .055-.007.055-.023 0-.01-.002-.018-.006-.025l-.038-.097c-.007-.015-.026-.03-.06-.045-.032-.014-.05-.023-.054-.026-.055-.031-.117-.106-.189-.226l-.593-.992c-.04-.067-.068-.123-.085-.169a.9364.9364 0 01-.035-.17l-.066-.419c-.005-.021-.006-.048-.006-.081 0-.027.003-.046.009-.061a.081.081 0 01.028-.035c.014-.008.037-.016.071-.026.036-.01.054-.015.056-.015.02-.004.031-.015.031-.034a.044.044 0 00-.011-.029l-.04-.083c-.016-.026-.036-.041-.06-.041h-.795c-.025 0-.037.011-.037.031 0 .008.003.025.012.048l.025.056c.013.024.033.041.06.055.055.015.098.034.128.061.03.028.051.078.061.154l.098.636-.236 1.129c-.014.076-.032.132-.056.168a.1764.1764 0 01-.097.074c-.025.007-.036.021-.036.04 0 .005.002.013.006.023m4.3154.0808l-.05-.092a.0759.0759 0 01-.007-.024c0-.015.019-.029.057-.038.098-.025.148-.08.148-.162 0-.016-.003-.037-.007-.067l-.281-1.768c-.009-.076-.029-.127-.06-.153-.029-.027-.072-.047-.126-.061-.028-.014-.049-.031-.062-.057l-.024-.054c-.01-.025-.014-.04-.014-.049 0-.021.014-.03.042-.03h.793c.022 0 .041.014.057.041l.041.082c.007.01.01.021.01.029 0 .019-.011.031-.032.034-.032.009-.058.016-.078.022a.121.121 0 00-.047.02.0675.0675 0 00-.029.033c-.006.014-.009.034-.009.058 0 .02.003.048.009.085l.117.743h.564c.048 0 .08.015.098.047l.057.135c.005.011.01.02.01.029 0 .018-.014.026-.039.026h-.656l.167 1.014h.381c.052 0 .092-.021.118-.062.028-.04.051-.089.072-.152.021-.06.038-.09.051-.09a.05.05 0 01.015.007l.066.064c.009.01.016.021.02.033l.04.268a.285.285 0 01.007.052c0 .055-.023.082-.069.082h-1.303c-.02 0-.035-.015-.047-.045m3.1163-1.5128c-.056-.235-.144-.439-.264-.608-.121-.172-.273-.257-.456-.257-.157 0-.278.07-.359.212-.081.138-.121.329-.121.57 0 .239.03.472.092.697.062.227.152.41.271.553.116.142.253.213.411.213.167 0 .294-.069.38-.204.086-.137.129-.314.129-.532 0-.194-.027-.409-.083-.644m.44 1.113c-.079.159-.185.282-.321.364a.8364.8364 0 01-.446.125c-.181 0-.354-.038-.519-.117-.165-.077-.31-.187-.435-.33-.124-.143-.223-.312-.294-.511-.071-.196-.106-.41-.106-.639 0-.282.052-.505.155-.667.102-.165.226-.276.37-.334.144-.061.288-.091.435-.091.109 0 .234.029.376.085.143.057.283.15.423.278.138.128.254.298.345.51.091.213.137.466.137.761 0 .217-.04.406-.12.566m2.0159-1.113c-.055-.235-.143-.439-.264-.608-.12-.172-.272-.257-.455-.257-.158 0-.278.07-.36.212-.08.138-.122.329-.122.57 0 .239.031.472.094.697.062.227.152.41.269.553.118.142.255.213.413.213.167 0 .294-.069.379-.204.087-.137.13-.314.13-.532 0-.194-.029-.409-.084-.644m.441 1.113c-.079.159-.186.282-.321.364a.8389.8389 0 01-.446.125c-.181 0-.355-.038-.52-.117-.164-.077-.309-.187-.434-.33-.125-.143-.223-.312-.294-.511-.071-.196-.107-.41-.107-.639 0-.282.052-.505.155-.667.102-.165.226-.276.37-.334.144-.061.289-.091.436-.091.107 0 .233.029.376.085.143.057.283.15.422.278.139.128.255.298.346.51.091.213.136.466.136.761 0 .217-.04.406-.119.566m2.0417-1.1369c-.046-.178-.112-.331-.195-.458-.083-.129-.177-.226-.282-.293-.104-.068-.214-.101-.327-.101-.216 0-.324.096-.324.289 0 .033.002.068.008.105l.297 1.854h.333c.111 0 .21-.029.295-.087.084-.057.15-.146.196-.268.047-.121.07-.273.07-.455 0-.214-.023-.41-.071-.586m.483.974a.9061.9061 0 01-.155.316c-.072.091-.165.161-.281.214-.115.052-.256.078-.418.078h-1.061c-.019 0-.035-.015-.051-.045l-.044-.093c-.004-.005-.005-.013-.005-.022 0-.017.017-.028.051-.037.101-.026.149-.08.149-.163a.411.411 0 00-.006-.067l-.306-1.934c-.005-.019-.007-.045-.007-.077 0-.062.017-.102.051-.118.127-.058.329-.088.607-.088.261 0 .489.048.685.145.196.096.356.224.479.385.124.16.215.336.273.53.059.194.088.389.088.584 0 .142-.016.271-.049.392m1.7791.0748l-.073-.065c-.023 0-.053.06-.089.18-.05.177-.151.264-.302.264-.077 0-.144-.029-.201-.089-.058-.059-.086-.131-.086-.215 0-.087.015-.162.044-.23.03-.065.086-.154.168-.267.082-.115.14-.198.173-.249.111-.171.186-.308.227-.412.043-.104.063-.215.063-.331 0-.08-.016-.16-.046-.242a.6722.6722 0 00-.147-.225c-.068-.069-.158-.124-.269-.167-.111-.043-.244-.063-.397-.063-.191 0-.341.024-.451.075-.064.025-.105.047-.125.063-.02.017-.03.048-.03.093l.045.416c.001.014.003.03.005.045.002.016.005.03.01.041.005.013.011.021.019.024l.086.034c.008 0 .015-.01.023-.033.009-.021.017-.053.029-.099.01-.044.02-.08.028-.109a.6788.6788 0 01.037-.092c.057-.144.159-.216.303-.216.093 0 .167.024.221.071a.366.366 0 01.114.166c.021.065.032.125.032.179 0 .109-.029.218-.088.328-.058.108-.138.23-.238.366-.126.171-.216.306-.267.403-.051.096-.077.201-.077.317 0 .118.03.223.091.317.06.093.151.166.273.22.122.052.269.08.44.08.169 0 .311-.025.427-.072.07-.031.104-.079.104-.142l-.054-.322c-.001-.006-.01-.021-.022-.042" fill="#a0a1a3"/><path d="M43.3515 32.3737s1.445 7.378 1.447 7.393c.188 1.269-1.393 1.089-1.393 1.089l.326.84h5.819l.163-.854s-1.542.262-1.775-.91l-1.488-7.764s-.505-1.393 1.297-1.338l-.269-.792h-5.852l-.146.819s1.679-.303 1.884 1.615" fill="#00549c"/><path d="M52.1908 38.2899l.204 1.02-3.907-.51-.117-.634s1.323.331.868-1.434l-1.006-5.145h2.648l1.062 5.393s.097.773 1.131.801c0 0 1.145-.015.772-1.6l-.924-4.607 3.921.489.107.615s-1.38-.248-.966.993l.634 3.406s.317 1.945-.924 2.247c0 0-1.407.594-3.503-1.034m8.6993-6.751s-2.109-.331-3.034.58c0 0-1.682 1.282-.055 4.426 1.628 3.144 5.228 2.731 5.228 2.731l.192.993s.18.911-1.351.744l.211.678 4.158.529-1.692-8.613s-.372-1.062 1.338-.938l-.105-.595-4.241-.551 1.31 6.773s-1.489.388-2.4-1.805c0 0-1.676-4.039.723-4.301l-.103-.596z" fill="#00549c"/><path d="M71.4849 35.0634c-.634-3.337-2.028-2.841-2.028-2.841s-1.254.151-.551 3.544c.688 3.316 1.889 2.868 1.889 2.868.621-.04 1.217-.796.69-3.571m-.794 4.481c-2.349.011-4.485-1.827-4.773-4.107-.286-2.281 1.385-4.138 3.733-4.15 2.349-.012 4.484 1.827 4.771 4.108.287 2.279-1.384 4.137-3.731 4.149m14.2398-4.481c-.634-3.337-2.025-2.841-2.025-2.841s-1.257.151-.553 3.544c.687 3.316 1.889 2.868 1.889 2.868.621-.04 1.217-.796.689-3.571m-.794 4.481c-2.348.011-4.485-1.827-4.771-4.107-.288-2.281 1.383-4.138 3.732-4.15 2.348-.012 4.483 1.827 4.771 4.108.287 2.279-1.384 4.137-3.732 4.149m10.0489-4.481c-.635-3.337-2.028-2.841-2.028-2.841s-1.255.151-.551 3.544c.687 3.316 1.889 2.868 1.889 2.868.621-.04 1.218-.796.69-3.571m-.796 4.481c-2.347.011-4.483-1.827-4.771-4.107-.287-2.281 1.384-4.138 3.733-4.15 2.347-.012 4.483 1.827 4.771 4.108.288 2.279-1.385 4.137-3.733 4.149" fill="#00549c"/><path d="M78.7221 38.3593h1.686l.233.91h-1.737s-1.517-.056-1.077 1.173c0 0 .47.675 1.077.096 0 0 .235-.166.856-.814l1.834 1.628s-1.405 1.746-3.227.786c-.786-.414-1.987-2.111-1.987-2.111s-.401-.675-1.434-.827l-.221-.882h1.42c-.543-3.804-.89-5.273-.89-5.273.014.039-.573-3.022-.972-3.829 0 0-.636-1.734-1.82-2.29-.675-.317-1.614-.222-1.614-.222-.957 0-1.912.872-1.912 1.68 0 .684.662 1.651 1.743 1.651l3.103-.002c.262.854.208.824.208.824l-3.245-.001c-1.567 0-2.809-1.024-2.809-2.385 0-1.325 1.362-2.641 2.929-2.641 0 0 3.236-.518 5.346 3.414 0 0 .868 1.136 1.711 5.025.843 3.894.799 4.09.799 4.09m-10.2024-7.5021h-19.94l-.249-.828h19.292s.152.524.897.828m8.9117-.8275h28.767l.193.828h-28.668c-.06-.457-.292-.828-.292-.828m24.2331 1.5644l.104.596c-2.4.263-.725 4.3-.725 4.3.91 2.193 2.401 1.807 2.401 1.807l-1.31-6.774 4.241.552.105.593c-1.709-.124-1.337.937-1.337.937l1.691 8.614-4.159-.529-.211-.676c1.531.165 1.352-.745 1.352-.745l-.193-.993s-3.6.414-5.226-2.731c-1.628-3.144.054-4.427.054-4.427.924-.91 3.035-.578 3.035-.578z" fill="#00549c"/></g></svg>